<svg width="18" height="18" viewBox="0 0 18 18" fill="none" xmlns="http://www.w3.org/2000/svg">
<g id="Vector">
<path d="M12.6427 3.5357H2.3214C1.31547 3.5357 0.5 4.35118 0.5 5.35713V15.6786C0.5 16.6845 1.31547 17.5 2.3214 17.5H12.6427C13.6486 17.5 14.4641 16.6845 14.4641 15.6786V5.35713C14.4641 4.35118 13.6486 3.5357 12.6427 3.5357ZM13.2498 15.6786C13.2498 16.0139 12.978 16.2858 12.6427 16.2858H2.3214C1.98608 16.2858 1.71425 16.0139 1.71425 15.6786V5.35713C1.71425 5.0218 1.98608 4.74998 2.3214 4.74998H12.6427C12.978 4.74998 13.2498 5.0218 13.2498 5.35713V15.6786Z" fill="white"/>
<path d="M15.6786 0.5H4.7502C3.74427 0.5 2.9288 1.31548 2.9288 2.32143C2.9288 2.65676 3.20062 2.92859 3.53595 2.92859C3.87127 2.92859 4.14306 2.65676 4.14306 2.32143C4.14306 1.9861 4.41488 1.71428 4.7502 1.71428H15.6786C16.0139 1.71428 16.2857 1.9861 16.2857 2.32143V13.25C16.2857 13.5854 16.0139 13.8572 15.6786 13.8572C15.3433 13.8572 15.0715 14.129 15.0715 14.4643C15.0715 14.7997 15.3433 15.0715 15.6786 15.0715C16.6845 15.0715 17.5 14.256 17.5 13.2501V2.32143C17.5 1.31548 16.6845 0.5 15.6786 0.5Z" fill="white"/>
</g>
</svg>
