<svg width="15" height="18" viewBox="0 0 15 18" fill="none" xmlns="http://www.w3.org/2000/svg">
<path id="Vector" d="M2.06002 15.0359C2.06002 16.162 2.97326 17.0759 4.10002 17.0759H10.9C12.0261 17.0759 12.94 16.162 12.94 15.0359L14.3 4.15593H0.70002L2.06002 15.0359ZM9.54002 6.19593H10.9V15.0359H9.54002V6.19593ZM6.82002 6.19593H8.18002V15.0359H6.82002V6.19593ZM4.10002 6.19593H5.46002V15.0359H4.10002V6.19593ZM13.96 1.43593H9.54002C9.54002 1.43593 9.23538 0.0759277 8.86002 0.0759277H6.14002C5.76398 0.0759277 5.46002 1.43593 5.46002 1.43593H1.04002C0.4763 1.43593 0.0200195 1.89221 0.0200195 2.45593C0.0200195 3.01965 0.0200195 3.47593 0.0200195 3.47593H14.98C14.98 3.47593 14.98 3.01965 14.98 2.45593C14.98 1.89221 14.5231 1.43593 13.96 1.43593Z" fill="white"/>
</svg>
