<svg width="31" height="21" viewBox="0 0 31 21" fill="none" xmlns="http://www.w3.org/2000/svg">
<g id="Union">
<path fill-rule="evenodd" clip-rule="evenodd" d="M25.5195 19.6441L1.66901 20C1.29953 20 1 19.7005 1 19.331V1.66901C1 1.29953 1.29953 1 1.66901 1H5.77521C5.9214 1 6.06358 1.04789 6.17998 1.13634L9.01112 3.28765H25.2183C25.5878 3.28765 25.8873 3.58717 25.8873 3.95666V5.41549H29.6616C30.1199 5.41549 30.4425 5.86584 30.2951 6.29975L25.5195 19.6441ZM1.80282 18.0313V1.80282H5.73014L8.56128 3.95412C8.67768 4.04258 8.81985 4.09046 8.96605 4.09046H25.0845V5.41549H6.41237C6.12298 5.41549 5.8664 5.60156 5.77647 5.87662L1.80282 18.0313ZM2.2663 19.1972H25.0646L29.4749 6.21831H6.5094L2.2663 19.1972Z" fill="#333333"/>
<path d="M25.4859 19.6441H25.5195M25.5195 19.6441L1.66901 20C1.29953 20 1 19.7005 1 19.331V1.66901C1 1.29953 1.29953 1 1.66901 1H5.77521C5.9214 1 6.06358 1.04789 6.17998 1.13634L9.01112 3.28765H25.2183C25.5878 3.28765 25.8873 3.58717 25.8873 3.95666V5.41549H29.6616C30.1199 5.41549 30.4425 5.86584 30.2951 6.29975L25.5195 19.6441ZM1.80282 1.80282V18.0313L5.77647 5.87662C5.8664 5.60156 6.12298 5.41549 6.41237 5.41549H25.0845V4.09046H8.96605C8.81985 4.09046 8.67768 4.04258 8.56128 3.95412L5.73014 1.80282H1.80282ZM2.2663 19.1972H25.0646L29.4749 6.21831H6.5094L2.2663 19.1972Z" stroke="#333333" stroke-width="0.5"/>
</g>
</svg>
