<svg width="16" height="18" viewBox="0 0 16 18" fill="none" xmlns="http://www.w3.org/2000/svg">
<g id="Group 48096807">
<rect id="Rectangle 1583" x="1.63452" y="1" width="5.10258" height="4.33976" rx="0.5" stroke="white"/>
<rect id="Rectangle 1584" x="9.2627" y="1" width="5.10258" height="4.33976" rx="0.5" stroke="white"/>
<rect id="Rectangle 1585" x="1.63452" y="12.6602" width="12.7308" height="4.33976" rx="0.5" stroke="white"/>
<path id="Arrow 1" d="M4.5769 7.14752C4.5769 6.87138 4.35305 6.64752 4.0769 6.64752C3.80076 6.64752 3.5769 6.87138 3.5769 7.14752H4.5769ZM3.72335 11.4242C3.91861 11.6194 4.2352 11.6194 4.43046 11.4242L7.61244 8.24218C7.8077 8.04692 7.8077 7.73034 7.61244 7.53508C7.41718 7.33982 7.10059 7.33982 6.90533 7.53508L4.0769 10.3635L1.24848 7.53508C1.05322 7.33982 0.736633 7.33982 0.54137 7.53508C0.346108 7.73034 0.346108 8.04692 0.54137 8.24218L3.72335 11.4242ZM3.5769 7.14752V11.0706H4.5769V7.14752H3.5769Z" fill="white"/>
<path id="Arrow 2" d="M12.4231 7.14752C12.4231 6.87138 12.1992 6.64752 11.9231 6.64752C11.647 6.64752 11.4231 6.87138 11.4231 7.14752H12.4231ZM11.5695 11.4242C11.7648 11.6194 12.0814 11.6194 12.2766 11.4242L15.4586 8.24218C15.6539 8.04692 15.6539 7.73034 15.4586 7.53508C15.2634 7.33982 14.9468 7.33982 14.7515 7.53508L11.9231 10.3635L9.09467 7.53508C8.89941 7.33982 8.58282 7.33982 8.38756 7.53508C8.1923 7.73034 8.1923 8.04692 8.38756 8.24218L11.5695 11.4242ZM11.4231 7.14752V11.0706H12.4231V7.14752H11.4231Z" fill="white"/>
</g>
</svg>
