<svg width="22" height="18" viewBox="0 0 22 18" fill="none" xmlns="http://www.w3.org/2000/svg">
<g id="Group 48096806">
<path id="Vector 14" d="M7.90354 4.41876L2.49366 1.34787C1.82702 0.969452 1 1.45097 1 2.21752V15.8001C1 16.5627 1.81928 17.0446 2.48582 16.6742L7.8957 13.6672C8.21307 13.4908 8.40988 13.1563 8.40988 12.7932V5.28842C8.40988 4.92854 8.21651 4.59642 7.90354 4.41876Z" stroke="white" stroke-linejoin="round"/>
<path id="Vector 15" d="M14.0965 4.41876L19.5063 1.34787C20.173 0.969452 21 1.45097 21 2.21752V15.8001C21 16.5627 20.1807 17.0446 19.5142 16.6742L14.1043 13.6672C13.7869 13.4908 13.5901 13.1563 13.5901 12.7932V5.28842C13.5901 4.92854 13.7835 4.59642 14.0965 4.41876Z" stroke="white" stroke-linejoin="round"/>
<path id="Line 191" d="M11 0.5L11 17.3247" stroke="white" stroke-linecap="round"/>
</g>
</svg>
