<svg width="20" height="18" viewBox="0 0 20 18" fill="none" xmlns="http://www.w3.org/2000/svg">
<g id="Vector">
<path d="M13.1197 3.53567H2.79824C1.79229 3.53567 0.976807 4.35116 0.976807 5.35711V15.6786C0.976807 16.6845 1.79229 17.5 2.79824 17.5H13.1197C14.1257 17.5 14.9411 16.6845 14.9411 15.6786V5.35711C14.9411 4.35116 14.1257 3.53567 13.1197 3.53567ZM13.7269 15.6786C13.7269 16.0139 13.455 16.2858 13.1197 16.2858H2.79824C2.46291 16.2858 2.19109 16.0139 2.19109 15.6786V5.35711C2.19109 5.02178 2.46291 4.74995 2.79824 4.74995H13.1197C13.455 4.74995 13.7269 5.02178 13.7269 5.35711V15.6786Z" fill="white"/>
<path d="M5.42298 1.22957V2.73679H6.85449V1.95914H8.64391V0.5H6.13879C5.74364 0.5 5.42298 0.826827 5.42298 1.22957Z" fill="white"/>
<path d="M15.8021 12.9025H17.5915V11.0787H19.023V13.632C19.023 14.0348 18.7024 14.3616 18.3073 14.3616H15.8021V12.9025Z" fill="white"/>
<path d="M15.8021 1.95914H17.5915V3.78295H19.023V1.22957C19.023 0.826827 18.7024 0.5 18.3073 0.5H15.8021V1.95914Z" fill="white"/>
<path d="M17.5915 5.46851V9.39332H19.023V5.46851H17.5915Z" fill="white"/>
<path d="M14.1483 1.95914H10.2976V0.5H14.1483V1.95914Z" fill="white"/>
</g>
</svg>
