<svg width="21" height="15" viewBox="0 0 21 15" fill="none" xmlns="http://www.w3.org/2000/svg">
<path id="Vector" d="M6.22636 2.80705H18.8167L17.0535 1.03644C16.8166 0.798655 16.8175 0.413909 17.0552 0.177098C17.2931 -0.0597532 17.6778 -0.0589026 17.9145 0.17888L20.6929 2.96888C20.8132 3.08967 20.8719 3.24834 20.8696 3.40637C20.8697 3.40916 20.87 3.41188 20.87 3.41467C20.87 3.62535 20.7627 3.81088 20.5999 3.91989L17.9145 6.61643C17.6777 6.85422 17.293 6.85499 17.0552 6.61822C16.8175 6.38141 16.8166 5.99666 17.0535 5.75888L18.7828 4.02229H6.22636C3.53483 4.02229 1.34513 6.212 1.34513 8.90352C1.34513 11.595 3.53483 13.7848 6.22636 13.7848H14.0555C14.3911 13.7848 14.6632 14.0568 14.6632 14.3924C14.6632 14.7279 14.3911 15 14.0555 15H6.22636C2.86475 15 0.129883 12.2651 0.129883 8.90352C0.129883 5.54192 2.86475 2.80705 6.22636 2.80705Z" fill="white"/>
</svg>
