<svg width="19" height="18" viewBox="0 0 19 18" fill="none" xmlns="http://www.w3.org/2000/svg">
<g id="Group 48096809">
<g id="Ellipse 86">
<mask id="path-1-inside-1_166_410" fill="white">
<path d="M5.94639 3.18487C5.78914 2.97605 5.49134 2.9332 5.29227 3.10261C4.03359 4.17378 3.13768 5.61452 2.73624 7.22592C2.29656 8.99079 2.47674 10.8531 3.24657 12.501C4.01641 14.1489 5.32915 15.4821 6.96487 16.2774C8.60059 17.0727 10.4599 17.2817 12.2314 16.8695C14.0029 16.4572 15.5789 15.4487 16.6954 14.0129C17.8119 12.5771 18.4011 10.8012 18.3642 8.98281C18.3274 7.16437 17.6667 5.41382 16.493 4.02443C15.4213 2.75586 13.9814 1.85872 12.3791 1.45337C12.1256 1.38926 11.8774 1.5592 11.8285 1.81598C11.7796 2.07277 11.9487 2.31898 12.2016 2.38513C13.5907 2.74854 14.8383 3.53258 15.7699 4.63531C16.8036 5.8589 17.3854 7.40055 17.4178 9.00199C17.4503 10.6034 16.9314 12.1674 15.9481 13.4318C14.9649 14.6963 13.5769 15.5844 12.0168 15.9475C10.4568 16.3106 8.81931 16.1265 7.37878 15.4261C5.93826 14.7257 4.78218 13.5515 4.10421 12.1003C3.42624 10.6491 3.26757 9.00901 3.65478 7.45475C4.00374 6.05401 4.77697 4.79969 5.86292 3.86027C6.06061 3.68925 6.10363 3.39368 5.94639 3.18487Z"/>
</mask>
<path d="M5.94639 3.18487C5.78914 2.97605 5.49134 2.9332 5.29227 3.10261C4.03359 4.17378 3.13768 5.61452 2.73624 7.22592C2.29656 8.99079 2.47674 10.8531 3.24657 12.501C4.01641 14.1489 5.32915 15.4821 6.96487 16.2774C8.60059 17.0727 10.4599 17.2817 12.2314 16.8695C14.0029 16.4572 15.5789 15.4487 16.6954 14.0129C17.8119 12.5771 18.4011 10.8012 18.3642 8.98281C18.3274 7.16437 17.6667 5.41382 16.493 4.02443C15.4213 2.75586 13.9814 1.85872 12.3791 1.45337C12.1256 1.38926 11.8774 1.5592 11.8285 1.81598C11.7796 2.07277 11.9487 2.31898 12.2016 2.38513C13.5907 2.74854 14.8383 3.53258 15.7699 4.63531C16.8036 5.8589 17.3854 7.40055 17.4178 9.00199C17.4503 10.6034 16.9314 12.1674 15.9481 13.4318C14.9649 14.6963 13.5769 15.5844 12.0168 15.9475C10.4568 16.3106 8.81931 16.1265 7.37878 15.4261C5.93826 14.7257 4.78218 13.5515 4.10421 12.1003C3.42624 10.6491 3.26757 9.00901 3.65478 7.45475C4.00374 6.05401 4.77697 4.79969 5.86292 3.86027C6.06061 3.68925 6.10363 3.39368 5.94639 3.18487Z" stroke="white" stroke-width="2" stroke-linejoin="round" mask="url(#path-1-inside-1_166_410)"/>
</g>
<path id="Vector 1" d="M0.705144 3.07054L5.91438 2.63743C6.08721 2.62306 6.23619 2.7578 6.2392 2.9312L6.32681 7.98453" stroke="white" stroke-linecap="round"/>
</g>
</svg>
