<svg width="21" height="15" viewBox="0 0 21 15" fill="none" xmlns="http://www.w3.org/2000/svg">
<path id="Vector" d="M14.7736 2.80705H2.1832L3.94648 1.03644C4.18329 0.798655 4.18248 0.413909 3.9447 0.177098C3.70687 -0.0597532 3.32217 -0.0589026 3.0854 0.17888L0.306984 2.96888C0.186716 3.08967 0.12806 3.24834 0.130328 3.40637C0.130247 3.40916 0.129883 3.41188 0.129883 3.41467C0.129883 3.62535 0.237189 3.81088 0.400032 3.91989L3.0854 6.61643C3.32225 6.85422 3.70691 6.85499 3.9447 6.61822C4.18248 6.3814 4.18329 5.99666 3.94648 5.75888L2.2171 4.02229H14.7736C17.4651 4.02229 19.6548 6.212 19.6548 8.90352C19.6548 11.595 17.4651 13.7848 14.7736 13.7848H8.75475C8.41918 13.7848 8.14712 14.0568 8.14712 14.3924C8.14712 14.7279 8.41918 15 8.75475 15H14.7736C18.1352 15 20.87 12.2651 20.87 8.90352C20.87 5.54192 18.1352 2.80705 14.7736 2.80705Z" fill="white"/>
</svg>
