<svg width="18" height="18" viewBox="0 0 18 18" fill="none" xmlns="http://www.w3.org/2000/svg">
<path id="Vector" d="M9.43941 0.146447C9.24415 -0.0488155 8.92757 -0.0488155 8.7323 0.146447L5.55032 3.32843C5.35506 3.52369 5.35506 3.84027 5.55032 4.03553C5.74559 4.2308 6.06217 4.2308 6.25743 4.03553L9.08586 1.20711L11.9143 4.03553C12.1095 4.2308 12.4261 4.2308 12.6214 4.03553C12.8167 3.84027 12.8167 3.52369 12.6214 3.32843L9.43941 0.146447ZM8.7323 17.8536C8.92757 18.0488 9.24415 18.0488 9.43941 17.8536L12.6214 14.6716C12.8167 14.4763 12.8167 14.1597 12.6214 13.9645C12.4261 13.7692 12.1095 13.7692 11.9143 13.9645L9.08586 16.7929L6.25743 13.9645C6.06217 13.7692 5.74559 13.7692 5.55032 13.9645C5.35506 14.1597 5.35506 14.4763 5.55032 14.6716L8.7323 17.8536ZM17.8536 9.43941C18.0488 9.24415 18.0488 8.92757 17.8536 8.7323L14.6716 5.55032C14.4763 5.35506 14.1597 5.35506 13.9645 5.55032C13.7692 5.74559 13.7692 6.06217 13.9645 6.25743L16.7929 9.08586L13.9645 11.9143C13.7692 12.1095 13.7692 12.4261 13.9645 12.6214C14.1597 12.8167 14.4763 12.8167 14.6716 12.6214L17.8536 9.43941ZM0.146447 8.7323C-0.0488155 8.92757 -0.0488155 9.24415 0.146447 9.43941L3.32843 12.6214C3.52369 12.8167 3.84027 12.8167 4.03553 12.6214C4.2308 12.4261 4.2308 12.1095 4.03553 11.9143L1.20711 9.08586L4.03553 6.25743C4.2308 6.06217 4.2308 5.74559 4.03553 5.55032C3.84027 5.35506 3.52369 5.35506 3.32843 5.55032L0.146447 8.7323ZM9.58586 7.71212V0.5H8.58586V7.71212H9.58586ZM8.58586 10.4596V17.5H9.58586V10.4596H8.58586ZM10.4596 9.58586H17.5V8.58586H10.4596V9.58586ZM7.71212 8.58586L0.5 8.58586L0.5 9.58586L7.71212 9.58586V8.58586Z" fill="white"/>
</svg>
